<?xml version="1.0" encoding="UTF-8"?>
<svg id="Camada_2" data-name="Camada 2" xmlns="http://www.w3.org/2000/svg" viewBox="0 0 337 185">
  <defs>
    <style>
      .cls-1 {
        fill: #fff;
      }

      .cls-2 {
        stroke: #000;
        stroke-linejoin: round;
        stroke-width: 5px;
      }
    </style>
  </defs>
  <g id="Camada_11" data-name="Camada 11">
    <g>
      <path d="m288.1,183.5c-1.6,0-3.1-.6-4.3-1.6-1.3-1.2-31.3-27.7-35.4-31.6h-44.2c-.9,0-1.7-.2-2.5-.5-.8.3-1.6.5-2.5.5h-71.4c-.8,0-1.7-.2-2.5-.5-.8.3-1.6.5-2.5.5h-25.4c-3.9,0-7.8-3.9-10.1-6.9l-.2,1.4c-.5,3.2-3.2,5.4-6.4,5.4h-29.4c-1.9,0-3.7-.8-4.9-2.3-.2-.2-4.2-4.2-8.1-8.1-8.6-8.6-11.7-11.7-11.9-11.9-1.2-1.4-1.8-3.3-1.5-5.2l1.8-11.5c-1.5-.3-2.8-1-3.8-2.2-.2-.2-4.2-4.2-8-8-8.6-8.6-11.7-11.7-12-12-1.2-1.4-1.8-3.3-1.5-5.2l4.7-29.6c.5-3.2,3.2-5.4,6.4-5.4h24.1l6.7-42c.5-3.2,3.2-5.4,6.4-5.4h71.4c1.9,0,3.7.8,4.9,2.3.2.2,4.2,4.2,8,8,8.6,8.6,11.8,11.7,12,12,1.2,1.4,1.8,3.3,1.5,5.2l-1.2,7.7h8.6l4.7-29.7c.5-3.2,3.2-5.4,6.4-5.4h31.6c.9,0,1.7.2,2.5.5.8-.3,1.6-.5,2.5-.5h71.4c1.9,0,3.7.8,4.9,2.3.2.2,4.2,4.2,8,8,8.7,8.6,11.8,11.8,12,12,1.2,1.4,1.8,3.3,1.5,5.2l-3.2,19.9h11.5c1.9,0,3.7.8,4.9,2.3.2.2,4.2,4.2,8,8,8.6,8.6,11.7,11.7,12,12,1.2,1.4,1.8,3.3,1.5,5.2l-9.6,59.7c2.4,2.2,9.4,9.2,9.9,10.8.8,2.7-.2,5.6-2.5,7.2l-40.9,28.2c-1.1.7-2.3,1.1-3.7,1.1Z"/>
      <path class="cls-1" d="m121.1,3c1.4,0,2.8.6,3.8,1.7.3.3,19.6,19.5,20,20,.9,1.1,1.4,2.6,1.1,4l-1.5,9.4h11.6l4.9-30.9c.4-2.4,2.5-4.2,4.9-4.2h31.6c.9,0,1.8.2,2.5.7.7-.4,1.6-.7,2.5-.7h71.4c1.5,0,2.8.6,3.8,1.7.3.3,19.6,19.5,20,20,.9,1.1,1.3,2.6,1.1,4-1.2,7.2-2.4,14.4-3.5,21.7h13.2c1.5,0,2.8.6,3.8,1.7.3.3,19.6,19.5,20,20,.9,1.1,1.3,2.6,1.1,4l-9.7,60.5c.7.5,9.6,9.4,10.1,10.7.6,2.1-.1,4.3-1.9,5.5l-40.9,28.2c-.8.6-1.8.9-2.8.9s-2.3-.4-3.3-1.2c0,0-33.8-29.9-35.7-31.9,0,0,0,0,0,0h-44.8c-.9,0-1.8-.2-2.5-.7-.7.4-1.6.7-2.5.7h-71.4c-.9,0-1.7-.2-2.5-.7-.7.4-1.6.7-2.5.7h-25.4s0,0,0,0c-4.9,0-10.4-8.4-10.9-9.3l-.8,5.1c-.4,2.4-2.5,4.2-4.9,4.2h-29.4c-1.4,0-2.8-.6-3.8-1.7-.3-.3-19.6-19.5-20-20-.9-1.1-1.4-2.6-1.1-4l2.1-13.2h-.6c-1.4,0-2.8-.6-3.8-1.7-.3-.3-19.6-19.5-20-20-.9-1.1-1.3-2.6-1.1-4l4.7-29.6c.4-2.4,2.5-4.2,4.9-4.2h25.3l6.9-43.2c.4-2.4,2.5-4.2,4.9-4.2h71.4m0-3H49.7c-3.9,0-7.2,2.8-7.9,6.7l-6.5,40.7H12.6c-3.9,0-7.2,2.8-7.9,6.7L0,83.7c-.4,2.3.3,4.6,1.8,6.4.3.3,1.9,1.9,12.1,12.1,3.7,3.7,7.5,7.4,8,7.9.9,1,2,1.8,3.2,2.2l-1.6,10.2c-.4,2.3.3,4.6,1.8,6.4.3.3,1.9,1.9,12,12.1,3.7,3.7,7.5,7.5,8,8,1.5,1.7,3.7,2.7,6,2.7h29.4c3.4,0,6.3-2.1,7.4-5.1,2.5,2.6,5.7,5.1,9.2,5.1h.1s25.3,0,25.3,0c.8,0,1.7-.1,2.5-.4.8.3,1.6.4,2.5.4h71.4c.9,0,1.7-.1,2.5-.4.8.3,1.7.4,2.5.4h43.6c5.5,5.1,31.8,28.4,35,31.3,1.5,1.3,3.3,2,5.3,2s3.2-.5,4.5-1.4l40.9-28.2c2.9-2,4.1-5.6,3.1-8.9-.7-2.1-6.8-8.2-9.7-10.9l9.5-59c.4-2.3-.3-4.6-1.8-6.4-.3-.3-1.9-1.9-12.1-12.1-3.7-3.7-7.5-7.5-8-8-1.5-1.7-3.7-2.7-6-2.7h-9.7c1-6.1,2-12.1,3-18.2.4-2.3-.3-4.6-1.8-6.4-.3-.3-1.9-1.9-12.1-12.1-3.7-3.7-7.5-7.4-8-7.9-1.5-1.7-3.7-2.7-6-2.7h-71.4c-.9,0-1.7.1-2.5.4-.8-.3-1.7-.4-2.5-.4h-31.6c-3.9,0-7.2,2.8-7.9,6.7l-4.5,28.4h-5.5l.9-5.9c.4-2.3-.3-4.6-1.8-6.4-.3-.3-1.9-1.9-12.1-12.1-3.7-3.7-7.5-7.5-8-8-1.5-1.7-3.7-2.7-6-2.7h0Z"/>
    </g>
    <g>
      <g>
        <path class="cls-1" d="m275.5,167c-.6,0-1.2-.2-1.6-.6l-32-28.2c-.8-.7-1-1.8-.7-2.7.4-1,1.3-1.6,2.3-1.6h18.8s7.2-45.6,7.2-45.6l-261.6-.9c-.7,0-1.4-.3-1.9-.9-.5-.6-.7-1.3-.6-2l4.7-29.6c.2-1.2,1.2-2.1,2.4-2.1h295.9c.7,0,1.4.3,1.9.9.5.6.7,1.3.6,2l-12.6,78.1h18c1.1,0,2,.7,2.4,1.7.3,1,0,2.2-1,2.8l-40.9,28.2c-.4.3-.9.4-1.4.4Z"/>
        <path d="m308.5,55.4c-4.3,27-8.7,54-13,81h20.9c-17.4,12-26.1,18-40.9,28.2-10.7-9.4-21.3-18.8-32-28.2,7,0,13.9,0,20.9,0,2.7-16.8,5.3-33.7,8-50.5-88.2-.3-176.3-.6-264.5-.9l4.7-29.6h295.9m0-4.9H12.6c-2.4,0-4.5,1.8-4.9,4.2l-4.7,29.6c-.2,1.4.2,2.9,1.1,4,.9,1.1,2.3,1.7,3.8,1.7l258.7.9-3.1,19.5-3.3,21.1h-16.7c-2.1,0-3.9,1.3-4.6,3.2-.7,1.9-.2,4.1,1.4,5.5l16,14.1,16,14.1c.9.8,2.1,1.2,3.3,1.2s2-.3,2.8-.9l13.4-9.2,27.6-19c1.8-1.2,2.6-3.5,1.9-5.5-.6-2.1-2.6-3.5-4.7-3.5h-15.1l8.4-52.4,3.7-22.8c.2-1.4-.2-2.9-1.1-4-.9-1.1-2.3-1.7-3.8-1.7h0Z"/>
      </g>
      <polygon points="112.7 92.5 95.9 92.5 90.2 75.2 114.2 75.7 112.7 92.5"/>
      <path class="cls-2" d="m271.5,77.8c-.7,3.6-1.3,7.2-2,10.8-1.1-3.8-2.1-7.6-3.2-11.5-4.6-3-9.2-5.9-13.8-8.9,4.6-2,9.1-4.1,13.7-6.1,3.2-2.9,6.4-5.9,9.6-8.8-.8,3.4-1.5,6.7-2.3,10.1-4.2,2.1-8.5,4.1-12.7,6.2,3.6,2.7,7.2,5.5,10.7,8.2Z"/>
      <g>
        <g>
          <path class="cls-1" d="m107.7,126.3c-.7,0-1.4-.3-1.9-.9s-.7-1.3-.6-2l12.8-80.7c.2-1.2,1.2-2.1,2.4-2.1h37.8l5.2-33c.2-1.2,1.2-2.1,2.4-2.1h31.6c.7,0,1.4.3,1.9.9s.7,1.3.6,2l-18.4,115.9c-.2,1.2-1.2,2.1-2.4,2.1h-71.4Z"/>
          <path d="m197.5,8l-18.4,115.9h-71.4l12.8-80.7h39.9l5.6-35.1h31.6m0-4.9h-31.6c-2.4,0-4.5,1.8-4.9,4.2l-4.9,30.9h-35.7c-2.4,0-4.5,1.8-4.9,4.2l-12.8,80.7c-.2,1.4.2,2.9,1.1,4,.9,1.1,2.3,1.7,3.8,1.7h71.4c2.4,0,4.5-1.8,4.9-4.2l18.4-115.9c.2-1.4-.2-2.9-1.1-4-.9-1.1-2.3-1.7-3.8-1.7h0Zm0,9.9h0,0Z"/>
        </g>
        <polygon points="160.9 39.7 156 39.7 151.5 67.8 143.3 67.8 138.4 99 151.5 99 155.5 73.9 155.5 73.9 160.9 39.7"/>
      </g>
      <g>
        <g>
          <path class="cls-1" d="m77.4,126.3c-1.1,0-2.1-.7-2.4-1.8l-7.5-27.8-4.4,27.5c-.2,1.2-1.2,2.1-2.4,2.1h-29.4c-.7,0-1.4-.3-1.9-.9s-.7-1.3-.6-2L47.3,7.6c.2-1.2,1.2-2.1,2.4-2.1h71.4c.7,0,1.4.3,1.9.9s.7,1.3.6,2l-10.8,68.4c-.2,1.2-1.2,2.1-2.4,2.1h-17l11.8,44.3c.2.7,0,1.5-.4,2.1-.5.6-1.2,1-2,1h-25.4Z"/>
          <path d="m121.1,7.9l-10.8,68.4h-20.2l12.7,47.5h-25.4l-10.5-38.9-6.2,38.9h-29.4L49.7,7.9h71.4m0-4.9H49.7c-2.4,0-4.5,1.8-4.9,4.2l-18.4,115.9c-.2,1.4.2,2.9,1.1,4,.9,1.1,2.3,1.7,3.8,1.7h29.4c2.4,0,4.5-1.8,4.9-4.2l2.5-16.1,4.5,16.6c.6,2.2,2.5,3.7,4.8,3.7h25.4c1.5,0,3-.7,3.9-1.9.9-1.2,1.3-2.8.9-4.3l-11-41.2h13.7c2.4,0,4.5-1.8,4.9-4.2l10.8-68.4c.2-1.4-.2-2.9-1.1-4-.9-1.1-2.3-1.7-3.8-1.7h0Zm0,9.9h0,0Z"/>
        </g>
        <polygon points="83.7 60.2 70.6 60.2 75.5 29 88.7 29 83.7 60.2"/>
      </g>
      <g>
        <g>
          <path class="cls-1" d="m184.2,126.3c-.7,0-1.4-.3-1.9-.9s-.7-1.3-.6-2l10.8-68.2,7.6-47.7c.2-1.2,1.2-2.1,2.4-2.1h71.4c.7,0,1.4.3,1.9.9.5.6.7,1.3.6,2,0,0-6.5,40.1-8,49.1-.1.8-.6,1.4-1.3,1.8-4.1,2.2-8.1,4.3-12.2,6.5l-3.9,2.1,3.2,2.5c3.3,2.6,6.6,5.2,9.9,7.8.7.6,1,1.4.9,2.3-2,12.6-4.9,31.1-6.9,43.7-.2,1.2-1.2,2.1-2.4,2.1h-71.4Z"/>
          <path d="m274,8c-2.7,16.4-5.3,32.7-8,49.1-6.5,3.5-13,6.9-19.5,10.4,5.3,4.2,10.7,8.5,16,12.7-2,12.6-4.9,31.1-6.9,43.7h-71.4l10.8-68.2,7.6-47.7h71.4m0-4.9h-71.4c-2.4,0-4.5,1.8-4.9,4.2l-7.6,47.7-10.8,68.2c-.2,1.4.2,2.9,1.1,4,.9,1.1,2.3,1.7,3.8,1.7h71.4c2.4,0,4.5-1.8,4.9-4.2,2-12.6,4.9-31.1,6.9-43.7.3-1.8-.4-3.5-1.8-4.7-3.4-2.7-6.7-5.3-10.1-8l1-.6c3.9-2.1,7.8-4.2,11.8-6.3,1.4-.7,2.3-2,2.5-3.6,1.4-8.8,2.9-17.6,4.3-26.3,1.2-7.6,2.5-15.2,3.7-22.8.2-1.4-.2-2.9-1.1-4-.9-1.1-2.3-1.7-3.8-1.7h0Zm0,9.9h0,0Z"/>
        </g>
        <polygon points="235.4 55.4 222.3 55.4 227.2 24.2 240.3 24.2 235.4 55.4"/>
        <polygon points="226.8 109.8 213.6 109.8 218.6 78.6 231.7 78.6 226.8 109.8"/>
      </g>
    </g>
  </g>
</svg>